<svg width="388" height="462" fill="none" xmlns="http://www.w3.org/2000/svg"><path fill-rule="evenodd" clip-rule="evenodd" d="M83.629 455.625c15.23 13.601 37.636 2.931 48.459-14.384C146.648 417.948 169.193 403 194.5 403c25.126 0 47.529 14.735 62.098 37.741 10.935 17.27 33.427 27.842 48.598 14.143C355.264 409.675 388 334.764 388 250c0-6.931-5.776-12.291-12.664-13.063-19.898-2.23-37.352-10.491-44.344-25.486-9.084-19.48-.884-41.988 17.355-61.08 9.59-10.038 14.448-24.569 8.17-36.951C321.885 45.127 262.032 0 194 0 86.857 0 0 111.929 0 250c0 85.229 33.096 160.496 83.629 205.625Z" fill="#CBB6FF"/></svg>