<svg xmlns="http://www.w3.org/2000/svg" width="24" height="24" fill="none"><path fill-rule="evenodd" clip-rule="evenodd" d="m4.84 3.94-.2 2.45c-.04.47.33.86.8.86h15.31c.42 0 .77-.32.8-.74.13-1.77-1.22-3.21-2.99-3.21H6.27c-.1-.44-.3-.86-.61-1.21-.5-.53-1.2-.84-1.92-.84H2c-.41 0-.75.34-.75.75s.34.75.75.75h1.74c.31 0 .6.13.81.35.21.23.31.53.29.84ZM10 20.75a1.75 1.75 0 1 1-3.5 0 1.75 1.75 0 0 1 3.5 0Zm8 0a1.75 1.75 0 1 1-3.5 0 1.75 1.75 0 0 1 3.5 0Zm-12.83-12h15.34c.47 0 .83.39.79.85l-.33 4.67c-.11 1.5-1.43 2.73-2.93 2.73H6.92c-1.71 0-3.05-1.46-2.91-3.17l.36-4.35c.04-.41.38-.73.8-.73Z" fill="#D9FF5A"/></svg>