<svg xmlns="http://www.w3.org/2000/svg" width="21" height="22" fill="none"><path fill-rule="evenodd" clip-rule="evenodd" d="m3.77 2.69-.2 2.45c-.04.47.33.86.8.86h15.31c.42 0 .77-.32.8-.74.13-1.77-1.22-3.21-2.99-3.21H5.2c-.1-.44-.3-.86-.61-1.21C4.09.31 3.39 0 2.67 0H.93C.52 0 .18.34.18.75s.34.75.75.75h1.74c.31 0 .6.13.81.35.21.23.31.53.29.84ZM8.93 19.5a1.75 1.75 0 1 1-3.5 0 1.75 1.75 0 0 1 3.5 0Zm8 0a1.75 1.75 0 1 1-3.5 0 1.75 1.75 0 0 1 3.5 0ZM4.1 7.5h15.34c.47 0 .83.39.79.85l-.33 4.67c-.11 1.5-1.43 2.73-2.93 2.73H5.85c-1.71 0-3.05-1.46-2.91-3.17l.36-4.35c.04-.41.38-.73.8-.73Z" fill="#fff"/></svg>