<svg width="102" height="38" fill="none" xmlns="http://www.w3.org/2000/svg"><path d="M4.25 18.3v15.45h5.4V37H.5V.5h8.65v3.25h-4.9V17.2H7.8v1.1H4.25ZM15.632.5V37h-3.5V.5h3.5Zm10.187 3.65c-.8 0-1.4.1-1.8.3-.4.2-.6.567-.6 1.1V7h4.4v2.55h-4.4V37h-3.5V11.55c0-.767.067-1.433.2-2h-2.35V7h3.1c.8-1.867 1.95-3.417 3.45-4.65C25.853 1.117 27.403.5 28.97.5h.65v4.35c-1.033-.467-2.3-.7-3.8-.7Zm6.732 25.8c0 1.633.233 2.733.7 3.3.5.567 1.166.85 2 .85 1.4 0 2.15-1.7 2.25-5.1l.15-5.85h.7l.15 6c.066 2.467-.317 4.483-1.15 6.05-.834 1.533-2.067 2.3-3.7 2.3-1.567 0-2.734-.45-3.5-1.35-.734-.9-1.1-2.4-1.1-4.5V13.3c0-2.333.483-4.05 1.45-5.15.966-1.1 2.25-1.65 3.85-1.65 1.433 0 2.483.467 3.15 1.4.7.9 1.05 2.4 1.05 4.5v8h-6v9.55ZM34 9.9c-.567 0-.95.233-1.15.7-.2.467-.3 1.2-.3 2.2v6.9h3v-5.65c0-1.7-.117-2.817-.35-3.35-.234-.533-.634-.8-1.2-.8ZM42.059 7h3.5v.55l-1.2 7.6.5.1c.466-3.433 1.083-5.75 1.85-6.95.766-1.2 1.7-1.8 2.8-1.8.933 0 1.7.367 2.3 1.1.6.733.9 1.717.9 2.95V37h-3.5V12.5c0-.933-.084-1.6-.25-2-.167-.4-.484-.6-.95-.6-.7 0-1.284.767-1.75 2.3-.467 1.533-.7 3.467-.7 5.8v19h-3.5V7ZM67.004.5V37h-3.5V.5h3.5Zm2.587 2.55h5.3V.5h-5.3v2.55Zm4.4 3.95v30h-3.5V7h3.5Zm6.987 22.95c0 1.633.234 2.733.7 3.3.5.567 1.167.85 2 .85 1.4 0 2.15-1.7 2.25-5.1l.15-5.85h.7l.15 6c.067 2.467-.316 4.483-1.15 6.05-.833 1.533-2.066 2.3-3.7 2.3-1.566 0-2.733-.45-3.5-1.35-.733-.9-1.1-2.4-1.1-4.5V13.3c0-2.333.484-4.05 1.45-5.15.967-1.1 2.25-1.65 3.85-1.65 1.434 0 2.484.467 3.15 1.4.7.9 1.05 2.4 1.05 4.5v8h-6v9.55Zm1.45-20.05c-.566 0-.95.233-1.15.7-.2.467-.3 1.2-.3 2.2v6.9h3v-5.65c0-1.7-.116-2.817-.35-3.35-.233-.533-.633-.8-1.2-.8Zm8.058 23.55V15c0-2.967.367-5.117 1.1-6.45.767-1.367 1.95-2.05 3.55-2.05 1.1 0 2.25.55 3.45 1.65l.3-.3-1.25-1.3V.5h3.5V37h-3.45v-.55l1.15-7.6-.5-.1c-.466 3.433-1.083 5.75-1.85 6.95-.766 1.2-1.7 1.8-2.8 1.8-.933 0-1.7-.367-2.3-1.1-.6-.733-.9-1.717-.9-2.95Zm3.6-18.75v16.8c0 1.733.434 2.6 1.3 2.6.367 0 .717-.35 1.05-1.05.367-.7.65-1.667.85-2.9.234-1.233.35-2.583.35-4.05V10.7c-.666-.667-1.383-1-2.15-1-.5 0-.866.333-1.1 1-.2.633-.3 1.967-.3 4Z" fill="#fff"/></svg>