<svg width="18" height="17" fill="none" xmlns="http://www.w3.org/2000/svg"><path d="M15.766 2.238A4.208 4.208 0 0 0 12.79 1a4.198 4.198 0 0 0-2.98 1.238L9 3.052l-.812-.814a4.204 4.204 0 0 0-5.955 0 4.231 4.231 0 0 0 0 5.974l.812.814L9 15l5.955-5.974.811-.814A4.222 4.222 0 0 0 17 5.225a4.235 4.235 0 0 0-1.234-2.987Z" fill="#fff"/><path d="m15.766 2.238-.708.706.708-.706ZM12.79 1v1-1ZM9.81 2.238l.708.706-.708-.706ZM9 3.052l-.708.706.708.71.708-.71L9 3.052Zm-.812-.814-.708.706.708-.706ZM2.233 8.212l.709-.706-.709.706Zm.812.814-.709.706.709-.706ZM9 15l-.708.706.708.71.708-.71L9 15Zm5.955-5.974.708.706-.708-.706Zm.811-.814-.708-.706.708.706Zm.709-6.68a5.21 5.21 0 0 0-1.69-1.134l-.769 1.847c.39.162.744.4 1.042.699l1.417-1.412ZM14.785.398A5.199 5.199 0 0 0 12.788 0v2c.42 0 .838.083 1.227.245l.768-1.847ZM12.788 0a5.2 5.2 0 0 0-1.996.398l.768 1.847c.39-.162.806-.245 1.228-.245V0Zm-1.996.398a5.209 5.209 0 0 0-1.69 1.134l1.417 1.412c.298-.3.652-.537 1.041-.699L10.793.398Zm-1.69 1.134-.811.814 1.416 1.412.811-.814-1.416-1.412Zm.605.814-.811-.814L7.48 2.944l.812.814 1.416-1.412Zm-.811-.814A5.204 5.204 0 0 0 5.21 0v2c.85 0 1.667.34 2.27.944l1.416-1.412ZM5.21 0a5.204 5.204 0 0 0-3.686 1.532l1.417 1.412A3.204 3.204 0 0 1 5.21 2V0ZM1.525 1.532A5.231 5.231 0 0 0 0 5.225h2c0-.856.34-1.677.942-2.281L1.525 1.532ZM0 5.225c0 1.384.548 2.713 1.525 3.693l1.417-1.412A3.231 3.231 0 0 1 2 5.225H0Zm1.525 3.693.811.814L3.753 8.32l-.811-.814-1.417 1.412Zm.811.814 5.956 5.974 1.416-1.412L3.753 8.32 2.336 9.732Zm7.372 5.974 5.955-5.974-1.416-1.412-5.955 5.974 1.416 1.412Zm5.955-5.974.811-.814-1.416-1.412-.811.814 1.416 1.412Zm.811-.814a5.224 5.224 0 0 0 1.13-1.695l-1.849-.763a3.225 3.225 0 0 1-.697 1.046l1.416 1.412Zm1.13-1.695A5.235 5.235 0 0 0 18 5.225h-2c0 .424-.083.843-.245 1.235l1.849.763ZM18 5.225c0-.686-.135-1.365-.396-1.999l-1.849.764c.162.391.245.81.245 1.235h2Zm-.396-1.999a5.224 5.224 0 0 0-1.13-1.694l-1.416 1.412c.299.299.535.654.697 1.046l1.849-.764Z" fill="#FFB1F7"/></svg>