<svg xmlns="http://www.w3.org/2000/svg" width="79" height="79" fill="none"><g filter="url(#a)"><circle cx="39.5" cy="39.5" r="39.5" fill="#fff" fill-opacity=".19"/><circle cx="39.5" cy="39.5" r="38.5" stroke="#D9FF5A" stroke-width="2"/></g><path d="m50.15 31.857-.709.705.708-.705ZM45.682 30v1-1Zm-4.466 1.857.708.706-.708-.706ZM40 33.077l-.709.706.709.711.708-.71-.708-.706Zm-1.217-1.22-.709.706.709-.706Zm-8.933 8.96.708-.705-.708.706Zm1.217 1.222-.708.706.708-.706ZM40 51l-.709.706.709.71.708-.71L40 51Zm8.932-8.961.709.706-.709-.706Zm1.217-1.221-.708-.706.708.706Zm.709-9.667a7.315 7.315 0 0 0-2.374-1.592l-.767 1.847c.644.268 1.23.66 1.724 1.156l1.417-1.411Zm-2.374-1.592a7.298 7.298 0 0 0-2.8-.559v2a5.3 5.3 0 0 1 2.033.406l.767-1.847Zm-2.8-.559c-.962 0-1.914.19-2.802.56l.768 1.846A5.298 5.298 0 0 1 45.683 31v-2Zm-2.802.56a7.328 7.328 0 0 0-2.374 1.59l1.417 1.412a5.313 5.313 0 0 1 1.725-1.156l-.768-1.847Zm-2.373 1.59-1.218 1.221 1.417 1.412 1.217-1.22-1.416-1.412Zm.199 1.221-1.217-1.22-1.417 1.412 1.218 1.22 1.416-1.412Zm-1.217-1.22A7.306 7.306 0 0 0 34.316 29v2c1.41 0 2.761.561 3.758 1.561l1.417-1.411ZM34.316 29a7.306 7.306 0 0 0-5.174 2.15l1.416 1.412A5.31 5.31 0 0 1 34.316 31v-2Zm-5.174 2.15A7.347 7.347 0 0 0 27 36.337h2c0-1.416.56-2.774 1.558-3.775l-1.416-1.411ZM27 36.337c0 1.945.77 3.81 2.142 5.187l1.416-1.412A5.347 5.347 0 0 1 29 36.337h-2Zm2.142 5.187 1.217 1.22 1.416-1.411-1.217-1.221-1.416 1.412Zm1.217 1.22 8.932 8.962 1.417-1.412-8.933-8.961-1.416 1.412Zm10.349 8.962 8.933-8.961-1.417-1.412-8.932 8.961 1.416 1.412Zm8.933-8.961 1.217-1.221-1.417-1.412-1.217 1.22 1.417 1.413Zm1.216-1.221a7.336 7.336 0 0 0 1.586-2.38l-1.848-.764a5.337 5.337 0 0 1-1.154 1.732l1.416 1.412Zm1.586-2.38c.368-.89.557-1.844.557-2.807h-2a5.36 5.36 0 0 1-.405 2.043l1.848.764ZM53 36.337c0-.963-.19-1.917-.557-2.807l-1.848.764c.267.648.405 1.342.405 2.043h2Zm-.557-2.807a7.337 7.337 0 0 0-1.586-2.38l-1.416 1.413a5.337 5.337 0 0 1 1.154 1.73l1.848-.763Z" fill="#D9FF5A"/><defs><filter id="a" x="-30.27" y="-30.27" width="139.541" height="139.541" filterUnits="userSpaceOnUse" color-interpolation-filters="sRGB"><feFlood flood-opacity="0" result="BackgroundImageFix"/><feGaussianBlur in="BackgroundImageFix" stdDeviation="15.135"/><feComposite in2="SourceAlpha" operator="in" result="effect1_backgroundBlur_2504_1250"/><feBlend in="SourceGraphic" in2="effect1_backgroundBlur_2504_1250" result="shape"/></filter></defs></svg>