<svg width="40" height="41" fill="none" xmlns="http://www.w3.org/2000/svg"><circle cx="19.799" cy="20.6" r="19.8" fill="#fff"/><g clip-path="url(#a)"><path d="M15.65 27.55h-3.266V17.034h3.266V27.55ZM14.015 15.6c-1.044 0-1.891-.865-1.891-1.91a1.891 1.891 0 0 1 3.782 0c0 1.045-.847 1.91-1.89 1.91Zm13.856 11.95h-3.258v-5.12c0-1.22-.025-2.784-1.698-2.784-1.698 0-1.958 1.325-1.958 2.696v5.207h-3.262V17.034h3.131v1.435h.046c.436-.827 1.5-1.698 3.09-1.698 3.304 0 3.912 2.176 3.912 5.002v5.777h-.003Z" fill="#AE97E8"/></g><defs><clipPath id="a"><path fill="#fff" transform="translate(10.999 11.8)" d="M0 0h18v18H0z"/></clipPath></defs></svg>