<svg xmlns="http://www.w3.org/2000/svg" width="25" height="24" fill="none"><path d="M23.678 18.963c0 .396-.088.803-.276 1.199-.187.396-.43.77-.749 1.122-.54.594-1.134 1.023-1.806 1.298a5.54 5.54 0 0 1-2.149.418c-1.123 0-2.324-.264-3.591-.803-1.267-.539-2.534-1.265-3.79-2.178a31.66 31.66 0 0 1-3.613-3.08 31.268 31.268 0 0 1-3.074-3.597C3.727 12.088 3 10.834 2.47 9.591c-.528-1.254-.792-2.453-.792-3.597 0-.748.132-1.463.396-2.123a5.063 5.063 0 0 1 1.267-1.837C4.046 1.341 4.817 1 5.633 1c.308 0 .617.066.892.198.286.132.54.33.738.616L9.82 5.411c.198.275.341.528.44.77.1.231.155.462.155.671 0 .264-.077.528-.232.781a3.742 3.742 0 0 1-.616.781l-.838.869a.588.588 0 0 0-.176.44c0 .088.011.165.033.253.033.088.066.154.088.22.199.363.54.836 1.025 1.408a37.623 37.623 0 0 0 1.597 1.738 33.113 33.113 0 0 0 1.752 1.617c.573.484 1.046.814 1.42 1.012.056.022.122.055.2.088a.762.762 0 0 0 .275.044c.187 0 .33-.066.451-.187l.838-.825c.275-.275.54-.484.793-.616.253-.154.506-.231.782-.231.21 0 .43.044.672.143.242.099.496.242.771.429l3.647 2.585c.286.198.484.429.605.704.11.275.177.55.177.858Z" fill="#fff"/></svg>