<svg width="29" height="29" fill="none" xmlns="http://www.w3.org/2000/svg"><path d="M26.149 5.084c-1.98-.204-3.96-.358-5.952-.473V4.6l-.27-1.661C19.741 1.763 19.47 0 16.592 0H13.37c-2.865 0-3.136 1.686-3.332 2.925L9.78 4.56c-1.144.077-2.288.154-3.432.268l-2.508.256c-.517.051-.886.524-.837 1.047.05.524.492.907 1.009.856l2.509-.255c6.444-.664 12.937-.409 19.455.268h.098c.467 0 .873-.37.922-.869.037-.523-.332-.996-.848-1.047Zm-2.556 4.384A1.496 1.496 0 0 0 22.512 9H7.488c-.404 0-.808.168-1.081.468-.274.3-.428.707-.405 1.127l.737 12.304C6.87 24.72 7.036 27 11.185 27h7.63c4.148 0 4.315-2.267 4.446-4.101l.737-12.292a1.566 1.566 0 0 0-.405-1.14Zm-6.62 11.524h-3.958a.902.902 0 0 1-.891-.9c0-.491.404-.899.891-.899h3.958c.487 0 .892.408.892.9a.903.903 0 0 1-.892.899Zm.998-4.797h-5.943a.902.902 0 0 1-.89-.9c0-.49.403-.899.89-.899h5.943c.488 0 .892.408.892.9 0 .492-.404.9-.892.9Z" fill="#D9FF5A"/></svg>