<svg width="40" height="41" fill="none" xmlns="http://www.w3.org/2000/svg"><circle cx="19.801" cy="20.6" r="19.8" fill="#fff"/><path d="M28.001 16.223c-.588.24-1.22.403-1.885.477a3.093 3.093 0 0 0 1.443-1.676 6.896 6.896 0 0 1-2.084.734 3.376 3.376 0 0 0-1.863-.918 3.525 3.525 0 0 0-2.084.319 3.144 3.144 0 0 0-1.442 1.423 2.815 2.815 0 0 0-.205 1.94 9.94 9.94 0 0 1-3.748-.92 9.224 9.224 0 0 1-3.018-2.245 2.85 2.85 0 0 0-.444 1.522c0 .499.133.99.388 1.43.254.44.623.814 1.072 1.091a3.488 3.488 0 0 1-1.487-.379v.04c0 .699.262 1.377.742 1.918.48.541 1.149.913 1.892 1.051-.484.12-.99.139-1.483.052.21.602.618 1.128 1.168 1.505.55.377 1.214.586 1.899.597a6.947 6.947 0 0 1-4.077 1.297c-.262 0-.524-.014-.784-.042a9.86 9.86 0 0 0 5.031 1.36c6.04 0 9.34-4.614 9.34-8.616 0-.13-.003-.261-.01-.391A6.41 6.41 0 0 0 28 16.225l.001-.002Z" fill="#AE97E8"/></svg>