<svg width="100%" height="100%" viewBox="0 0 580 343" fill="none" xmlns="http://www.w3.org/2000/svg">
             <clipPath id="card_clip" clipPathUnits="objectBoundingBox">
            <path
                    fill-rule="evenodd"
                    clip-rule="evenodd"
                    d="M337 0.766602C314.909 0.766602 297 18.6752 297 40.7666L297 76.5292C297 80.3952 293.866 83.5292 290 83.5292C286.134 83.5292 283 80.3952 283 76.5292L283 40.7666C283 18.6752 265.091 0.766599 243 0.766599L40 0.766599C17.9086 0.766599 -7.82927e-07 18.6752 -1.74872e-06 40.7666L-1.32036e-05 302.785C-1.41694e-05 324.876 17.9086 342.785 40 342.785L103.391 342.785C110.289 342.785 116.018 337.697 118.179 331.146C127.08 304.169 151.065 284.951 179.612 284.951C208.012 284.951 232.601 303.972 242.6 330.73C245.081 337.371 251.452 342.532 258.021 339.869C272.669 333.929 283 319.564 283 302.785L283 267.023C283 263.157 286.134 260.023 290 260.023C293.866 260.023 297 263.157 297 267.023L297 302.785C297 324.876 314.909 342.785 337 342.785L540 342.785C562.091 342.785 580 324.876 580 302.785L580 40.7666C580 18.6752 562.091 0.766601 540 0.7666L337 0.766602Z"
                    fill="#CBB6FF"
                  />
                       </clipPath>
</svg>
