<svg xmlns="http://www.w3.org/2000/svg" width="21" height="22" viewBox="0 0 21 22" fill="none">
  <path fill-rule="evenodd" clip-rule="evenodd" d="M3.76969 2.69L3.56969 5.14C3.52969 5.61 3.89969 6 4.36969 6H19.6797C20.0997 6 20.4497 5.68 20.4797 5.26C20.6097 3.49 19.2597 2.05 17.4897 2.05H5.19969C5.09969 1.61 4.89969 1.19 4.58969 0.84C4.08969 0.31 3.38969 0 2.66969 0H0.929688C0.519688 0 0.179688 0.34 0.179688 0.75C0.179688 1.16 0.519688 1.5 0.929688 1.5H2.66969C2.97969 1.5 3.26969 1.63 3.47969 1.85C3.68969 2.08 3.78969 2.38 3.76969 2.69ZM8.92969 19.5C8.92969 20.4665 8.14619 21.25 7.17969 21.25C6.21319 21.25 5.42969 20.4665 5.42969 19.5C5.42969 18.5335 6.21319 17.75 7.17969 17.75C8.14619 17.75 8.92969 18.5335 8.92969 19.5ZM16.9297 19.5C16.9297 20.4665 16.1462 21.25 15.1797 21.25C14.2132 21.25 13.4297 20.4665 13.4297 19.5C13.4297 18.5335 14.2132 17.75 15.1797 17.75C16.1462 17.75 16.9297 18.5335 16.9297 19.5ZM4.09974 7.5H19.4397C19.9097 7.5 20.2697 7.89 20.2297 8.35L19.8997 13.02C19.7897 14.52 18.4697 15.75 16.9697 15.75H5.84974C4.13974 15.75 2.79974 14.29 2.93974 12.58L3.29974 8.23C3.33974 7.82 3.67974 7.5 4.09974 7.5Z" fill="white"/>
</svg>