<svg width="388" height="462" viewBox="0 0 388 462" fill="none" xmlns="http://www.w3.org/2000/svg">
<path fill-rule="evenodd" clip-rule="evenodd" d="M83.6289 455.625C98.8589 469.226 121.265 458.556 132.088 441.241C146.648 417.948 169.193 403 194.5 403C219.626 403 242.029 417.735 256.598 440.741C267.533 458.011 290.025 468.583 305.196 454.884C355.264 409.675 388 334.764 388 250C388 242.748 381.955 237.152 374.755 236.283C355.395 233.948 338.508 225.814 331.606 211.188C322.473 191.833 330.494 169.391 348.52 150.283C357.999 140.236 362.78 125.775 356.535 113.456C321.906 45.1429 262.044 0 194 0C86.8568 0 0 111.929 0 250C0 335.229 33.0956 410.496 83.6289 455.625Z" fill="#CBB6FF"/>
</svg>
