<svg xmlns="http://www.w3.org/2000/svg" width="79" height="79" viewBox="0 0 79 79" fill="none">
  <g filter="url(#filter0_b_2504_1250)">
    <circle cx="39.5" cy="39.5" r="39.5" fill="white" fill-opacity="0.19"/>
    <circle cx="39.5" cy="39.5" r="38.5" stroke="#D9FF5A" stroke-width="2"/>
  </g>
  <path d="M50.1494 31.8566L49.441 32.5624L49.4413 32.5627L50.1494 31.8566ZM45.6831 30V31V30ZM41.2167 31.8566L41.925 32.5625L41.9251 32.5624L41.2167 31.8566ZM39.9997 33.0775L39.2915 33.7835L39.9997 34.494L40.7079 33.7835L39.9997 33.0775ZM38.7826 31.8566L38.0744 32.5625L38.0744 32.5625L38.7826 31.8566ZM29.85 40.8178L30.5582 40.1118H30.5582L29.85 40.8178ZM31.0671 42.0387L30.3588 42.7447H30.3588L31.0671 42.0387ZM39.9997 51L39.2915 51.706L39.9997 52.4165L40.7079 51.706L39.9997 51ZM48.9323 42.0387L49.6406 42.7447L48.9323 42.0387ZM50.1494 40.8178L49.4413 40.1117L49.4411 40.1118L50.1494 40.8178ZM50.8578 31.1507C50.1786 30.4691 49.3721 29.9282 48.4842 29.5591L47.7165 31.4059C48.3612 31.6739 48.9473 32.0668 49.441 32.5624L50.8578 31.1507ZM48.4842 29.5591C47.5962 29.19 46.6444 29 45.6831 29V31C46.3808 31 47.0717 31.1379 47.7165 31.4059L48.4842 29.5591ZM45.6831 29C44.7217 29 43.7699 29.19 42.8819 29.5591L43.6496 31.4059C44.2944 31.1379 44.9853 31 45.6831 31V29ZM42.8819 29.5591C41.994 29.9282 41.1875 30.4691 40.5083 31.1507L41.9251 32.5624C42.4188 32.0668 43.0049 31.6739 43.6496 31.4059L42.8819 29.5591ZM40.5085 31.1506L39.2915 32.3715L40.7079 33.7835L41.925 32.5625L40.5085 31.1506ZM40.7079 32.3715L39.4909 31.1506L38.0744 32.5625L39.2915 33.7835L40.7079 32.3715ZM39.4909 31.1506C38.1191 29.7744 36.2578 29.0006 34.3163 29.0006V31.0006C35.7253 31.0006 37.0772 31.5621 38.0744 32.5625L39.4909 31.1506ZM34.3163 29.0006C32.3749 29.0006 30.5136 29.7744 29.1418 31.1506L30.5582 32.5625C31.5555 31.5621 32.9074 31.0006 34.3163 31.0006V29.0006ZM29.1418 31.1506C27.7701 32.5267 27 34.3924 27 36.3372H29C29 34.9208 29.5609 33.5631 30.5582 32.5625L29.1418 31.1506ZM27 36.3372C27 38.2819 27.7701 40.1477 29.1418 41.5238L30.5582 40.1118C29.5609 39.1113 29 37.7536 29 36.3372H27ZM29.1418 41.5238L30.3588 42.7447L31.7753 41.3328L30.5582 40.1118L29.1418 41.5238ZM30.3588 42.7447L39.2915 51.706L40.7079 50.294L31.7753 41.3328L30.3588 42.7447ZM40.7079 51.706L49.6406 42.7447L48.2241 41.3328L39.2915 50.294L40.7079 51.706ZM49.6406 42.7447L50.8576 41.5238L49.4411 40.1118L48.2241 41.3328L49.6406 42.7447ZM50.8574 41.5239C51.5369 40.8426 52.0757 40.0339 52.4433 39.1439L50.5948 38.3804C50.3273 39.0281 49.9352 39.6164 49.4413 40.1117L50.8574 41.5239ZM52.4433 39.1439C52.8109 38.254 53 37.3003 53 36.3372H51C51 37.0384 50.8623 37.7328 50.5948 38.3804L52.4433 39.1439ZM53 36.3372C53 35.3741 52.8109 34.4203 52.4433 33.5304L50.5948 34.2939C50.8623 34.9416 51 35.6359 51 36.3372H53ZM52.4433 33.5304C52.0757 32.6405 51.5369 31.8317 50.8574 31.1504L49.4413 32.5627C49.9352 33.058 50.3273 33.6462 50.5948 34.2939L52.4433 33.5304Z" fill="#D9FF5A"/>
  <defs>
    <filter id="filter0_b_2504_1250" x="-30.2703" y="-30.2703" width="139.541" height="139.541" filterUnits="userSpaceOnUse" color-interpolation-filters="sRGB">
      <feFlood flood-opacity="0" result="BackgroundImageFix"/>
      <feGaussianBlur in="BackgroundImageFix" stdDeviation="15.1352"/>
      <feComposite in2="SourceAlpha" operator="in" result="effect1_backgroundBlur_2504_1250"/>
      <feBlend mode="normal" in="SourceGraphic" in2="effect1_backgroundBlur_2504_1250" result="shape"/>
    </filter>
  </defs>
</svg>