<svg xmlns="http://www.w3.org/2000/svg" width="79" height="79" viewBox="0 0 79 79" fill="none">
    <circle cx="39.5" cy="39.5" r="39.5" fill="white" fill-opacity="0.19"/>
    <circle cx="39.5" cy="39.5" r="38.5" stroke="#FFB1F7" stroke-width="2"/>
  <path d="M49.2265 30.8566C48.6645 30.268 47.9972 29.8011 47.2628 29.4825C46.5284 29.164 45.7412 29 44.9463 29C44.1513 29 43.3641 29.164 42.6297 29.4825C41.8953 29.8011 41.228 30.268 40.666 30.8566L39.4997 32.0775L38.3334 30.8566C37.1982 29.6682 35.6585 29.0006 34.0531 29.0006C32.4478 29.0006 30.9081 29.6682 29.7729 30.8566C28.6377 32.0449 28 33.6566 28 35.3372C28 37.0177 28.6377 38.6295 29.7729 39.8178L30.9393 41.0387L39.4997 50L48.0602 41.0387L49.2265 39.8178C49.7887 39.2295 50.2348 38.531 50.5391 37.7622C50.8434 36.9934 51 36.1694 51 35.3372C51 34.505 50.8434 33.681 50.5391 32.9122C50.2348 32.1434 49.7887 31.4449 49.2265 30.8566Z" fill="white"/>
  <path d="M49.2265 30.8566L48.5032 31.5471L48.5036 31.5475L49.2265 30.8566ZM44.9463 29V30V29ZM40.666 30.8566L41.3891 31.5473L41.3893 31.5471L40.666 30.8566ZM39.4997 32.0775L38.7766 32.7682L39.4997 33.5252L40.2228 32.7682L39.4997 32.0775ZM38.3334 30.8566L37.6103 31.5473L37.6103 31.5473L38.3334 30.8566ZM29.7729 39.8178L30.496 39.1271L30.496 39.1271L29.7729 39.8178ZM30.9393 41.0387L30.2162 41.7295L30.2162 41.7295L30.9393 41.0387ZM39.4997 50L38.7766 50.6908L39.4997 51.4477L40.2228 50.6908L39.4997 50ZM48.0602 41.0387L48.7832 41.7295L48.7832 41.7295L48.0602 41.0387ZM49.2265 39.8178L48.5036 39.1269L48.5034 39.1271L49.2265 39.8178ZM49.9497 30.166C49.2971 29.4825 48.5197 28.9377 47.6607 28.5651L46.8649 30.3999C47.4747 30.6645 48.0319 31.0535 48.5032 31.5471L49.9497 30.166ZM47.6607 28.5651C46.8016 28.1925 45.8791 28 44.9463 28V30C45.6033 30 46.2552 30.1355 46.8649 30.3999L47.6607 28.5651ZM44.9463 28C44.0134 28 43.0909 28.1925 42.2318 28.5651L43.0276 30.3999C43.6374 30.1355 44.2892 30 44.9463 30V28ZM42.2318 28.5651C41.3728 28.9377 40.5954 29.4825 39.9428 30.166L41.3893 31.5471C41.8606 31.0535 42.4178 30.6645 43.0276 30.3999L42.2318 28.5651ZM39.9429 30.1658L38.7766 31.3867L40.2228 32.7682L41.3891 31.5473L39.9429 30.1658ZM40.2228 31.3867L39.0565 30.1658L37.6103 31.5473L38.7766 32.7682L40.2228 31.3867ZM39.0565 30.1658C37.7376 28.7852 35.9389 28.0006 34.0531 28.0006L34.0531 30.0006C35.3782 30.0006 36.6587 30.5512 37.6103 31.5473L39.0565 30.1658ZM34.0531 28.0006C32.1674 28.0006 30.3687 28.7852 29.0498 30.1658L30.496 31.5473C31.4476 30.5512 32.7281 30.0006 34.0531 30.0006L34.0531 28.0006ZM29.0498 30.1658C27.7325 31.5448 27 33.4058 27 35.3372L29 35.3372C29 33.9074 29.543 32.545 30.496 31.5473L29.0498 30.1658ZM27 35.3372C27 37.2686 27.7325 39.1295 29.0498 40.5086L30.496 39.1271C29.543 38.1294 29 36.7669 29 35.3372L27 35.3372ZM29.0498 40.5086L30.2162 41.7295L31.6624 40.348L30.496 39.1271L29.0498 40.5086ZM30.2162 41.7295L38.7766 50.6908L40.2228 49.3092L31.6624 40.348L30.2162 41.7295ZM40.2228 50.6908L48.7832 41.7295L47.3371 40.348L38.7766 49.3092L40.2228 50.6908ZM48.7832 41.7295L49.9496 40.5086L48.5034 39.1271L47.3371 40.348L48.7832 41.7295ZM49.9494 40.5087C50.6023 39.8256 51.1179 39.017 51.4689 38.1302L49.6093 37.3942C49.3517 38.045 48.9752 38.6334 48.5036 39.1269L49.9494 40.5087ZM51.4689 38.1302C51.8199 37.2435 52 36.2945 52 35.3372H50C50 36.0442 49.8669 36.7433 49.6093 37.3942L51.4689 38.1302ZM52 35.3372C52 34.3798 51.8199 33.4309 51.4689 32.5441L49.6093 33.2802C49.8669 33.9311 50 34.6302 50 35.3372H52ZM51.4689 32.5441C51.1179 31.6573 50.6023 30.8487 49.9494 30.1656L48.5036 31.5475C48.9752 32.041 49.3517 32.6294 49.6093 33.2802L51.4689 32.5441Z" fill="#FFB1F7"/>
</svg>