<svg xmlns="http://www.w3.org/2000/svg" width="50" height="50" viewBox="0 0 50 50" fill="none">
  <g filter="url(#filter0_b_2576_4632)">
    <circle cx="25" cy="25" r="25" fill="white" fill-opacity="0.19"/>
    <circle cx="25" cy="25" r="24.5" stroke="#FFB1F7"/>
  </g>
  <path d="M34.3036 17.7681C33.766 17.2076 33.1278 16.7629 32.4253 16.4595C31.7228 16.1562 30.9699 16 30.2095 16C29.4491 16 28.6961 16.1562 27.9936 16.4595C27.2912 16.7629 26.6529 17.2076 26.1153 17.7681L24.9997 18.9309L23.8841 17.7681C22.7983 16.6364 21.3256 16.0006 19.79 16.0006C18.2544 16.0006 16.7817 16.6364 15.6958 17.7681C14.61 18.8999 14 20.4349 14 22.0354C14 23.6359 14.61 25.1709 15.6958 26.3027L16.8115 27.4655L24.9997 36L33.188 27.4655L34.3036 26.3027C34.8414 25.7424 35.268 25.0771 35.5591 24.3449C35.8502 23.6128 36 22.828 36 22.0354C36 21.2429 35.8502 20.4581 35.5591 19.7259C35.268 18.9937 34.8414 18.3284 34.3036 17.7681Z" fill="white"/>
  <path d="M34.3036 17.7681L33.9427 18.1142L33.9429 18.1144L34.3036 17.7681ZM30.2095 16V16.5V16ZM26.1153 17.7681L26.4761 18.1143L26.4762 18.1142L26.1153 17.7681ZM24.9997 18.9309L24.6389 19.2771L24.9997 19.6532L25.3605 19.2771L24.9997 18.9309ZM23.8841 17.7681L23.5233 18.1143L23.5233 18.1143L23.8841 17.7681ZM15.6958 26.3027L16.0566 25.9565L15.6958 26.3027ZM16.8115 27.4655L16.4507 27.8116H16.4507L16.8115 27.4655ZM24.9997 36L24.6389 36.3462L24.9997 36.7222L25.3605 36.3462L24.9997 36ZM33.188 27.4655L33.5488 27.8116H33.5488L33.188 27.4655ZM34.3036 26.3027L33.9429 25.9564L33.9428 25.9565L34.3036 26.3027ZM34.6645 17.4221C34.0815 16.8141 33.3882 16.3307 32.6235 16.0005L32.2271 16.9186C32.8674 17.1951 33.4506 17.601 33.9427 18.1142L34.6645 17.4221ZM32.6235 16.0005C31.8589 15.6703 31.0385 15.5 30.2095 15.5V16.5C30.9012 16.5 31.5868 16.642 32.2271 16.9186L32.6235 16.0005ZM30.2095 15.5C29.3804 15.5 28.5601 15.6703 27.7954 16.0005L28.1919 16.9186C28.8322 16.642 29.5177 16.5 30.2095 16.5V15.5ZM27.7954 16.0005C27.0308 16.3307 26.3375 16.8141 25.7545 17.4221L26.4762 18.1142C26.9683 17.601 27.5515 17.1951 28.1919 16.9186L27.7954 16.0005ZM25.7545 17.422L24.6389 18.5848L25.3605 19.2771L26.4761 18.1143L25.7545 17.422ZM25.3605 18.5848L24.2449 17.422L23.5233 18.1143L24.6389 19.2771L25.3605 18.5848ZM24.2449 17.422C23.067 16.1943 21.465 15.5006 19.79 15.5006V16.5006C21.1861 16.5006 22.5295 17.0785 23.5233 18.1143L24.2449 17.422ZM19.79 15.5006C18.1149 15.5006 16.5129 16.1943 15.335 17.422L16.0566 18.1143C17.0504 17.0785 18.3938 16.5006 19.79 16.5006V15.5006ZM15.335 17.422C14.1579 18.6489 13.5 20.3088 13.5 22.0354H14.5C14.5 20.561 15.0622 19.1508 16.0566 18.1143L15.335 17.422ZM13.5 22.0354C13.5 23.762 14.1579 25.4219 15.335 26.6488L16.0566 25.9565C15.0622 24.92 14.5 23.5099 14.5 22.0354H13.5ZM15.335 26.6488L16.4507 27.8116L17.1723 27.1193L16.0566 25.9565L15.335 26.6488ZM16.4507 27.8116L24.6389 36.3462L25.3605 35.6538L17.1723 27.1193L16.4507 27.8116ZM25.3605 36.3462L33.5488 27.8116L32.8272 27.1193L24.6389 35.6538L25.3605 36.3462ZM33.5488 27.8116L34.6644 26.6488L33.9428 25.9565L32.8272 27.1193L33.5488 27.8116ZM34.6643 26.6489C35.2475 26.0413 35.7091 25.321 36.0237 24.5297L35.0945 24.1602C34.8269 24.8333 34.4353 25.4435 33.9429 25.9564L34.6643 26.6489ZM36.0237 24.5297C36.3383 23.7383 36.5 22.8908 36.5 22.0354H35.5C35.5 22.7651 35.362 23.4872 35.0945 24.1602L36.0237 24.5297ZM36.5 22.0354C36.5 21.18 36.3383 20.3325 36.0237 19.5412L35.0945 19.9106C35.362 20.5836 35.5 21.3057 35.5 22.0354H36.5ZM36.0237 19.5412C35.7091 18.7498 35.2475 18.0295 34.6643 17.4219L33.9429 18.1144C34.4353 18.6274 34.8269 19.2375 35.0945 19.9106L36.0237 19.5412Z" fill="#FFB1F7"/>
  <defs>
    <filter id="filter0_b_2576_4632" x="-30.2703" y="-30.2703" width="110.541" height="110.541" filterUnits="userSpaceOnUse" color-interpolation-filters="sRGB">
      <feFlood flood-opacity="0" result="BackgroundImageFix"/>
      <feGaussianBlur in="BackgroundImageFix" stdDeviation="15.1352"/>
      <feComposite in2="SourceAlpha" operator="in" result="effect1_backgroundBlur_2576_4632"/>
      <feBlend mode="normal" in="SourceGraphic" in2="effect1_backgroundBlur_2576_4632" result="shape"/>
    </filter>
  </defs>
</svg>